<svg xmlns="http://www.w3.org/2000/svg" viewBox="0 0 32 32">
  <circle cx="16" cy="16" r="16" fill="#25D366" />
  <path
    fill="#fff"
    d="M16.02 5.83a10.08 10.08 0 0 0-8.75 15.09L6 25.98l5.21-1.35c1.45.78 2.9 1.16 4.76 1.16 5.58 0 10.11-4.49 10.11-10.02 0-5.52-4.53-9.94-10.06-9.94Zm-.05 18.06c-1.54 0-2.92-.45-4.2-1.2l-3.04.79.81-2.95c-.82-1.27-1.28-2.68-1.28-4.22 0-4.44 3.65-8.03 8.11-8.03 4.47 0 8.09 3.59 8.09 8.03 0 4.45-3.62 7.58-8.49 7.58Z"
  />
  <path
    fill="#fff"
    d="M21.28 18.75c-.2.62-1.16 1.14-1.9 1.29-.51.1-1.23.2-3.57-.83-2.99-1.3-4.93-4.51-5.08-4.73-.15-.22-1.23-1.63-1.23-3.11 0-1.49.78-2.2 1.05-2.5.27-.3.58-.37.78-.37h.56c.18.01.42-.06.66.52.25.62.87 2.13.95 2.29.08.16.13.34.03.55-.1.2-.15.33-.31.5-.15.18-.33.41-.47.55-.15.16-.31.32-.13.63.18.31.81 1.41 1.73 2.28 1.18 1.11 2.17 1.46 2.47 1.63.3.17.48.14.66-.09.17-.23.74-.93.93-1.25.2-.32.39-.27.66-.17.27.1 1.71.76 2 .9.29.14.48.22.55.34.06.12.06.75-.14 1.37Z"
  />
</svg>
